<svg aria-hidden="true" style="position: absolute; width: 0; height: 0; overflow: hidden;" version="1.1" xmlns="http://www.w3.org/2000/svg" xmlns:xlink="http://www.w3.org/1999/xlink">
<defs>
<symbol id="icon-bose-logo" viewBox="0 0 207 32">
<path fill="#fff" style="fill: var(--color1, #fff)" d="M141.228 13.69h-14.623l2.387-4.753c0.995-1.987 1.89-2.688 3.349-2.688 1.492 0 1.989 1.403 1.194 3.117h14.921l1.492-3.117c1.094-2.338 1.094-4.87-1.592-4.87h-26.294c-2.387 0-4.244 0.351-5.637 3.039l-4.642 9.273c-1.293 2.688-1.194 4.87 1.99 4.87h15.12l-2.454 5.104c-0.696 1.403-1.592 2.338-3.647 2.338-1.791 0-1.691-1.403-0.895-2.766h-14.822l-1.79 3.468c-1.094 2.221-0.199 4.169 2.387 4.169h26.095c2.387 0 4.443-1.286 5.637-3.584l4.443-8.727c0.928-2.182 0.431-4.87-2.619-4.87z"></path>
<path fill="#fff" style="fill: var(--color1, #fff)" d="M204.725 7.106c-1.193 0-2.188 1.13-2.188 2.494 0 1.403 0.995 2.494 2.188 2.494 1.195 0 2.188-1.13 2.188-2.494-0.032-1.364-0.994-2.494-2.188-2.494zM204.725 11.626c-0.995 0-1.757-0.896-1.757-2.026 0-1.091 0.795-1.987 1.757-1.987s1.758 0.896 1.758 1.987c0 1.13-0.797 2.026-1.758 2.026z"></path>
<path fill="#fff" style="fill: var(--color1, #fff)" d="M107.541 1.378h-22.349c-3.050 0-7.029 0-9.384 4.87l-9.881 19.754c-1.393 2.688-0.199 4.87 2.388 4.87h25.962c2.653 0 4.344-0.935 6.433-4.87l9.881-19.754c1.293-2.533-0.696-4.87-3.050-4.87zM94.974 8.937l-7.394 14.728c-0.995 2.104-1.89 2.338-4.145 2.338-2.288 0-2.852-0.935-2.189-2.338l7.494-14.728c1.094-2.221 2.387-2.688 4.244-2.688 1.89 0 2.984 0.701 1.99 2.688z"></path>
<path fill="#fff" style="fill: var(--color1, #fff)" d="M68.38 1.378h-28.648l-12.335 24.624h-27.289v4.87h55.042c3.647 0 4.841-2.104 5.637-3.701l2.951-6.039c0.796-1.636 0.796-3.468-0.796-4.519 1.592 0 3.747-1.286 5.040-3.935l2.951-5.922c1.525-2.922-0.265-5.377-2.553-5.377zM53.658 21.249l-1.492 2.766c-0.398 0.935-1.094 1.987-2.752 1.987h-7.328l3.78-7.442h7.096c1.293 0 1.293 1.403 0.696 2.688zM59.892 8.937l-1.492 2.805c-0.398 0.935-1.094 1.987-2.752 1.987h-7.328l3.747-7.442h7.129c1.293-0.039 1.293 1.364 0.696 2.649z"></path>
<path fill="#fff" style="fill: var(--color1, #fff)" d="M205.819 8.937c0-0.234-0.099-0.468-0.265-0.584-0.198-0.117-0.398-0.117-0.596-0.117h-1.062v2.766h0.366v-1.286h0.431l0.696 1.286h0.398l-0.73-1.286c0.431 0 0.762-0.234 0.762-0.779zM204.66 9.366h-0.398v-0.857h0.629c0.299 0 0.564 0.039 0.564 0.39 0 0.545-0.465 0.468-0.795 0.468z"></path>
<path fill="#fff" style="fill: var(--color1, #fff)" d="M169.346 6.249h37.071v-4.87h-49.405l-14.723 29.494h34.384l2.455-4.87h-19.663l3.747-7.442h19.662l2.388-4.87h-19.563l3.646-7.442z"></path>
</symbol>
</defs>
</svg>